<svg width="77" height="77" viewBox="0 0 77 77" fill="none" xmlns="http://www.w3.org/2000/svg">
<path d="M47.1213 40.3064C46.563 40.2958 46.0174 40.1376 45.5401 39.8478L37.95 35.3254L30.4074 39.8478C30.0513 40.0617 29.6565 40.2034 29.2457 40.2647C28.8348 40.326 28.4159 40.3058 28.0128 40.2052C27.6098 40.1046 27.2305 39.9256 26.8966 39.6785C26.5627 39.4313 26.2808 39.1208 26.0669 38.7647C25.853 38.4085 25.7113 38.0138 25.65 37.6029C25.5887 37.192 25.6089 36.7731 25.7095 36.3701C25.8101 35.967 25.9891 35.5877 26.2362 35.2538C26.4834 34.9199 26.7939 34.638 27.15 34.4241L37.95 27.941L48.75 34.4241C49.3471 34.7784 49.811 35.3192 50.0701 35.9633C50.3293 36.6073 50.3694 37.3187 50.1841 37.9878C49.9989 38.6569 49.5986 39.2464 49.0451 39.6654C48.4916 40.0844 47.8156 40.3097 47.1213 40.3064Z" fill="#40A3F8"/>
<path d="M8.22238 75.9006C7.68237 75.888 7.14813 75.7865 6.64112 75.6002C4.74361 74.9518 2.18198 72.9911 1.10672 67.4567V67.2511C-0.0384404 58.4756 -0.282171 49.606 0.37934 40.7809C1.26485 29.5381 3.16236 24.8576 4.52224 22.3118C7.85231 16.2898 12.8411 11.3504 18.8959 8.08043L19.4809 7.74836H20.1609C22.2467 7.56851 24.3188 8.2233 25.9225 9.56911C27.5262 10.9149 28.5306 12.8419 28.7155 14.9273L31.4669 46.1571C32.2228 51.5638 31.0288 57.0629 28.0988 61.6693C26.7705 63.6617 24.62 65.401 20.3506 68.864C13.6777 74.3193 10.5152 75.9006 8.22238 75.9006ZM7.32107 66.4131C7.4572 67.542 7.85224 68.6243 8.47538 69.5756C11.3255 68.0772 13.9808 66.2344 16.3817 64.0886C18.7446 62.4043 20.9136 60.4633 22.849 58.3012C24.9514 54.9027 25.7754 50.8668 25.1735 46.9161L22.4221 15.3384C22.409 15.1262 22.3532 14.9188 22.2581 14.7286C22.163 14.5384 22.0306 14.3693 21.8686 14.2315C21.6844 14.0797 21.4681 13.9716 21.2361 13.9153C16.5673 16.5888 12.7346 20.509 10.1673 25.2371C9.48739 26.4546 7.57407 30.0441 6.68856 41.271C6.04138 49.6513 6.25332 58.0759 7.32107 66.4131Z" fill="#40A3F8"/>
<path d="M67.6777 75.9005C65.4007 75.9005 62.2382 74.3192 55.5495 68.848C51.2801 65.3851 49.1296 63.6457 47.8013 61.6533C44.8709 57.0297 43.6825 51.5138 44.449 46.0937L47.1688 14.7848C47.3537 12.6994 48.3581 10.7725 49.9618 9.42666C51.5655 8.08085 53.6376 7.42606 55.7234 7.60591H56.4033L56.9252 8.00122C62.9799 11.2712 67.9687 16.2106 71.2988 22.2326C72.6587 24.7784 74.5562 29.4747 75.4417 40.7016C76.12 49.5304 75.8922 58.4054 74.7618 67.1877V67.3933C73.6865 72.9277 71.1881 74.8885 69.2906 75.5526C68.7764 75.7585 68.2311 75.8762 67.6777 75.9005ZM54.664 13.9468C54.432 14.0031 54.2157 14.1112 54.0315 14.263C53.7118 14.5339 53.5127 14.9207 53.478 15.3383L50.7266 46.7104C50.1149 50.6815 50.939 54.7407 53.0511 58.1587C54.9865 60.3208 57.1555 62.2618 59.5184 63.9461C61.9193 66.0919 64.5746 67.9347 67.4247 69.4331C68.0479 68.4819 68.4429 67.3996 68.579 66.2706C69.6425 57.9543 69.8544 49.5512 69.2115 41.1918C68.326 30.044 66.4127 26.4545 65.796 25.3002C63.2169 20.5515 59.361 16.6189 54.664 13.9468Z" fill="#40A3F8"/>
<g filter="url(#filter0_b_8_414)">
<path d="M36.9601 33.88C36.1433 33.88 35.3599 33.5555 34.7822 32.9779C34.2046 32.4003 33.8801 31.6169 33.8801 30.8V3.08C33.8801 2.26313 34.2046 1.47972 34.7822 0.902111C35.3599 0.324499 36.1433 0 36.9601 0C37.777 0 38.5604 0.324499 39.138 0.902111C39.7156 1.47972 40.0401 2.26313 40.0401 3.08V30.8C40.0401 31.6169 39.7156 32.4003 39.138 32.9779C38.5604 33.5555 37.777 33.88 36.9601 33.88Z" fill="#40A3F8"/>
</g>
<defs>
<filter id="filter0_b_8_414" x="8.88013" y="-25" width="56.1599" height="83.88" filterUnits="userSpaceOnUse" color-interpolation-filters="sRGB">
<feFlood flood-opacity="0" result="BackgroundImageFix"/>
<feGaussianBlur in="BackgroundImageFix" stdDeviation="12.5"/>
<feComposite in2="SourceAlpha" operator="in" result="effect1_backgroundBlur_8_414"/>
<feBlend mode="normal" in="SourceGraphic" in2="effect1_backgroundBlur_8_414" result="shape"/>
</filter>
</defs>
</svg>
