<svg width="12" height="13" viewBox="0 0 12 13" fill="none" xmlns="http://www.w3.org/2000/svg">
<path d="M12 4.92443C12 4.73786 11.8654 4.62192 11.5961 4.5765L7.97599 4.02452L6.35341 0.583463C6.26213 0.376744 6.14424 0.273438 6.00004 0.273438C5.85586 0.273438 5.73805 0.376744 5.64669 0.583463L4.02404 4.02452L0.403793 4.5765C0.134631 4.62192 0 4.73786 0 4.92443C0 5.03035 0.0601168 5.15136 0.180325 5.28748L2.80536 7.96465L2.18517 11.7459C2.17555 11.8165 2.17077 11.8671 2.17077 11.8972C2.17077 12.0031 2.19598 12.0925 2.24645 12.1657C2.29689 12.239 2.37257 12.2754 2.47358 12.2754C2.56017 12.2754 2.65628 12.2453 2.76204 12.1847L5.99996 10.3998L9.23811 12.1847C9.33925 12.2453 9.43539 12.2754 9.52647 12.2754C9.62293 12.2754 9.69609 12.239 9.74655 12.1657C9.79687 12.0926 9.8221 12.0031 9.8221 11.8972C9.8221 11.8318 9.81968 11.7814 9.81485 11.7459L9.19462 7.96465L11.8124 5.28748C11.9376 5.15639 12 5.03533 12 4.92443Z" fill="#FFC107"/>
</svg>
