<svg width="31" height="31" viewBox="0 0 31 31" fill="none" xmlns="http://www.w3.org/2000/svg">
<circle cx="15.5331" cy="15.4667" r="15.4667" fill="#0077B5"/>
<path fill-rule="evenodd" clip-rule="evenodd" d="M11.9525 8.55361C11.9525 9.42444 11.2895 10.1292 10.2526 10.1292C9.25604 10.1292 8.59298 9.42444 8.6135 8.55361C8.59298 7.64046 9.25603 6.95624 10.2724 6.95624C11.2895 6.95624 11.9327 7.64046 11.9525 8.55361ZM8.69687 21.5173V11.3739H11.8493V21.5166H8.69687V21.5173Z" fill="white"/>
<path fill-rule="evenodd" clip-rule="evenodd" d="M14.3761 14.611C14.3761 13.3458 14.3344 12.2672 14.2927 11.3752H17.0309L17.1765 12.7648H17.2387C17.6536 12.1217 18.6905 11.1476 20.3706 11.1476C22.4444 11.1476 24.0001 12.5167 24.0001 15.5024V21.5186H20.8477V15.8974C20.8477 14.5899 20.3917 13.6985 19.2509 13.6985C18.3795 13.6985 17.8613 14.3 17.6542 14.8803C17.5708 15.0881 17.5298 15.378 17.5298 15.6691V21.5186H14.3774V14.611H14.3761Z" fill="white"/>
</svg>
