<svg width="101" height="15" viewBox="0 0 101 15" fill="none" xmlns="http://www.w3.org/2000/svg">
<path fill-rule="evenodd" clip-rule="evenodd" d="M14.2883 5.74055C14.1964 5.45627 13.9443 5.25384 13.6468 5.22553L9.56843 4.85249L7.96281 1.08853C7.84501 0.812147 7.5736 0.632812 7.27322 0.632812C6.97272 0.632812 6.70132 0.812147 6.58351 1.08853L4.9742 4.85249L0.901416 5.2191C0.599243 5.24388 0.341709 5.44794 0.248517 5.73641C0.155326 6.02482 0.244714 6.34103 0.475175 6.53793L3.55362 9.2369L2.64632 13.2337C2.57964 13.5263 2.69387 13.8304 2.93675 14.0068C3.17951 14.1831 3.50406 14.1977 3.76171 14.0439L7.27725 11.9451L10.7874 14.0448C11.0452 14.1983 11.3696 14.1836 11.6124 14.0073C11.8551 13.8311 11.9697 13.5272 11.9037 13.2346L10.9964 9.23785L14.0747 6.53883C14.3008 6.34087 14.387 6.02717 14.2938 5.7415L14.2883 5.74055Z" fill="url(#paint0_linear_20_161)"/>
<path fill-rule="evenodd" clip-rule="evenodd" d="M35.9199 5.74055C35.828 5.45627 35.5759 5.25384 35.2784 5.22553L31.2 4.85249L29.5944 1.08853C29.4766 0.812147 29.2052 0.632812 28.9048 0.632812C28.6043 0.632812 28.3329 0.812147 28.2151 1.08853L26.6058 4.85249L22.533 5.2191C22.2308 5.24388 21.9733 5.44794 21.8801 5.73641C21.7869 6.02482 21.8763 6.34103 22.1068 6.53793L25.1852 9.2369L24.2779 13.2337C24.2112 13.5263 24.3255 13.8304 24.5683 14.0068C24.8111 14.1831 25.1357 14.1977 25.3933 14.0439L28.9088 11.9451L32.419 14.0448C32.6768 14.1983 33.0012 14.1836 33.244 14.0073C33.4867 13.8311 33.6013 13.5272 33.5353 13.2346L32.628 9.23785L35.7063 6.53883C35.9324 6.34087 36.0186 6.02717 35.9254 5.7415L35.9199 5.74055Z" fill="url(#paint1_linear_20_161)"/>
<path fill-rule="evenodd" clip-rule="evenodd" d="M57.5517 5.74055C57.4599 5.45627 57.2077 5.25384 56.9102 5.22553L52.8319 4.85249L51.2262 1.08853C51.1084 0.812147 50.837 0.632812 50.5367 0.632812C50.2362 0.632812 49.9647 0.812147 49.8469 1.08853L48.2376 4.85249L44.1648 5.2191C43.8627 5.24388 43.6051 5.44794 43.5119 5.73641C43.4188 6.02482 43.5081 6.34103 43.7386 6.53793L46.8171 9.2369L45.9097 13.2337C45.8431 13.5263 45.9573 13.8304 46.2002 14.0068C46.4429 14.1831 46.7675 14.1977 47.0251 14.0439L50.5407 11.9451L54.0508 14.0448C54.3086 14.1983 54.633 14.1836 54.8758 14.0073C55.1186 13.8311 55.2331 13.5272 55.1671 13.2346L54.2598 9.23785L57.3382 6.53883C57.5643 6.34087 57.6504 6.02717 57.5572 5.7415L57.5517 5.74055Z" fill="url(#paint2_linear_20_161)"/>
<path fill-rule="evenodd" clip-rule="evenodd" d="M100.815 5.74055C100.724 5.45627 100.471 5.25384 100.174 5.22553L96.0955 4.85249L94.4899 1.08853C94.3721 0.812147 94.1007 0.632812 93.8003 0.632812C93.4998 0.632812 93.2284 0.812147 93.1106 1.08853L91.5013 4.85249L87.4285 5.2191C87.1263 5.24388 86.8688 5.44794 86.7756 5.73641C86.6824 6.02482 86.7718 6.34103 87.0023 6.53793L90.0807 9.2369L89.1734 13.2337C89.1067 13.5263 89.221 13.8304 89.4638 14.0068C89.7066 14.1831 90.0312 14.1977 90.2888 14.0439L93.8043 11.9451L97.3145 14.0448C97.5723 14.1983 97.8967 14.1836 98.1395 14.0073C98.3822 13.8311 98.4968 13.5272 98.4308 13.2346L97.5235 9.23785L100.602 6.53883C100.828 6.34087 100.914 6.02717 100.821 5.7415L100.815 5.74055Z" fill="url(#paint3_linear_20_161)"/>
<path fill-rule="evenodd" clip-rule="evenodd" d="M79.1836 5.74055C79.0917 5.45627 78.8396 5.25384 78.5421 5.22553L74.4637 4.85249L72.8581 1.08853C72.7403 0.812147 72.4689 0.632812 72.1685 0.632812C71.868 0.632812 71.5966 0.812147 71.4788 1.08853L69.8695 4.85249L65.7967 5.2191C65.4945 5.24388 65.237 5.44794 65.1438 5.73641C65.0506 6.02482 65.14 6.34103 65.3704 6.53793L68.4489 9.2369L67.5416 13.2337C67.4749 13.5263 67.5891 13.8304 67.832 14.0068C68.0748 14.1831 68.3993 14.1977 68.657 14.0439L72.1725 11.9451L75.6827 14.0448C75.9404 14.1983 76.2649 14.1836 76.5076 14.0073C76.7504 13.8311 76.865 13.5272 76.799 13.2346L75.8917 9.23785L78.97 6.53883C79.1961 6.34087 79.2822 6.02717 79.1891 5.7415L79.1836 5.74055Z" fill="url(#paint4_linear_20_161)"/>
<defs>
<linearGradient id="paint0_linear_20_161" x1="7.27148" y1="0.632812" x2="7.27148" y2="14.1505" gradientUnits="userSpaceOnUse">
<stop stop-color="#FFD056"/>
<stop offset="0.744792" stop-color="#F8C14F"/>
<stop offset="1" stop-color="#F7B73B"/>
</linearGradient>
<linearGradient id="paint1_linear_20_161" x1="28.9031" y1="0.632812" x2="28.9031" y2="14.1505" gradientUnits="userSpaceOnUse">
<stop stop-color="#FFD056"/>
<stop offset="0.744792" stop-color="#F8C14F"/>
<stop offset="1" stop-color="#F7B73B"/>
</linearGradient>
<linearGradient id="paint2_linear_20_161" x1="50.5349" y1="0.632812" x2="50.5349" y2="14.1505" gradientUnits="userSpaceOnUse">
<stop stop-color="#FFD056"/>
<stop offset="0.744792" stop-color="#F8C14F"/>
<stop offset="1" stop-color="#F7B73B"/>
</linearGradient>
<linearGradient id="paint3_linear_20_161" x1="93.7986" y1="0.632812" x2="93.7986" y2="14.1505" gradientUnits="userSpaceOnUse">
<stop stop-color="#FFD056"/>
<stop offset="0.744792" stop-color="#F8C14F"/>
<stop offset="1" stop-color="#F7B73B"/>
</linearGradient>
<linearGradient id="paint4_linear_20_161" x1="72.1668" y1="0.632812" x2="72.1668" y2="14.1505" gradientUnits="userSpaceOnUse">
<stop stop-color="#FFD056"/>
<stop offset="0.744792" stop-color="#F8C14F"/>
<stop offset="1" stop-color="#F7B73B"/>
</linearGradient>
</defs>
</svg>
